<svg width="18" height="18" viewBox="0 0 18 18" fill="none" xmlns="http://www.w3.org/2000/svg">
<g clip-path="url(#clip0_14_355)">
<path fill-rule="evenodd" clip-rule="evenodd" d="M9 0C13.9725 0 18 4.0275 18 9C18 12.9825 15.4238 16.3463 11.8463 17.5387C11.3963 17.6175 11.2275 17.3475 11.2275 17.1112C11.2275 16.8975 11.2387 16.1888 11.2387 15.435C13.5 15.8513 14.085 14.8837 14.265 14.3775C14.3663 14.1187 14.805 13.32 15.1875 13.1062C15.5025 12.9375 15.9525 12.5212 15.1988 12.51C14.49 12.4987 13.9837 13.1625 13.815 13.4325C13.005 14.7937 11.7112 14.4113 11.1937 14.175C11.115 13.59 10.8787 13.1962 10.62 12.9712C12.6225 12.7463 14.715 11.97 14.715 8.5275C14.715 7.54875 14.3663 6.73875 13.7925 6.10875C13.8825 5.88375 14.1975 4.96125 13.7025 3.72375C13.7025 3.72375 12.9488 3.4875 11.2275 4.64625C10.5075 4.44375 9.7425 4.3425 8.9775 4.3425C8.2125 4.3425 7.4475 4.44375 6.7275 4.64625C5.00625 3.47625 4.2525 3.72375 4.2525 3.72375C3.7575 4.96125 4.0725 5.88375 4.1625 6.10875C3.58875 6.73875 3.24 7.5375 3.24 8.5275C3.24 11.9812 5.34375 12.7463 7.34625 12.9712C7.02 13.2525 6.73875 13.7925 6.73875 14.6363C6.73875 15.84 6.75 16.8075 6.75 17.1112C6.75 17.3475 6.58125 17.6287 6.13125 17.5387C2.57625 16.3463 0 12.9712 0 9C0 4.0275 4.0275 0 9 0Z" fill="white" fill-opacity="0.75"/>
</g>
<defs>
<clipPath id="clip0_14_355">
<rect width="18" height="18" fill="white" transform="matrix(-1 0 0 1 18 0)"/>
</clipPath>
</defs>
</svg>
