<svg width="18" height="18" viewBox="0 0 18 18" fill="none" xmlns="http://www.w3.org/2000/svg">
<path d="M8.57812 7.13813V12.375C8.57812 12.4869 8.62257 12.5942 8.70169 12.6733C8.78081 12.7524 8.88811 12.7969 9 12.7969C9.11189 12.7969 9.21919 12.7524 9.29831 12.6733C9.37743 12.5942 9.42188 12.4869 9.42188 12.375V7.13813C10.0854 7.03202 10.6847 6.67977 11.1001 6.15158C11.5155 5.62339 11.7167 4.95805 11.6635 4.28817C11.6103 3.61828 11.3066 2.99305 10.8129 2.53708C10.3193 2.08111 9.672 1.8279 9 1.8279C8.328 1.8279 7.68068 2.08111 7.18705 2.53708C6.69342 2.99305 6.38974 3.61828 6.33652 4.28817C6.2833 4.95805 6.48446 5.62339 6.8999 6.15158C7.31534 6.67977 7.91456 7.03202 8.57812 7.13813ZM9 2.67188C9.36157 2.67188 9.71502 2.7791 10.0157 2.97997C10.3163 3.18085 10.5506 3.46637 10.689 3.80041C10.8273 4.13446 10.8635 4.50203 10.793 4.85665C10.7225 5.21128 10.5483 5.53702 10.2927 5.79268C10.037 6.04835 9.71127 6.22246 9.35665 6.293C9.00203 6.36354 8.63445 6.32734 8.30041 6.18897C7.96636 6.05061 7.68085 5.81629 7.47997 5.51566C7.27909 5.21502 7.17188 4.86157 7.17188 4.5C7.17188 4.01516 7.36448 3.55017 7.70732 3.20733C8.05016 2.86449 8.51515 2.67188 9 2.67188ZM16.7344 12.375C16.7344 13.313 15.878 14.1595 14.322 14.7572C12.8939 15.307 11.0039 15.6094 9 15.6094C6.99609 15.6094 5.10609 15.307 3.67805 14.7572C2.12203 14.1595 1.26562 13.313 1.26562 12.375C1.26562 10.9969 3.12609 9.84375 6.1207 9.36141C6.23129 9.34323 6.34456 9.36972 6.43561 9.43506C6.52666 9.50039 6.58803 9.59923 6.60621 9.70981C6.62439 9.82039 6.5979 9.93367 6.53256 10.0247C6.46723 10.1158 6.3684 10.1771 6.25781 10.1953C4.99219 10.3985 3.91852 10.7339 3.15773 11.1642C2.48063 11.5453 2.10938 11.9756 2.10938 12.375C2.10938 13.5056 4.93945 14.7656 9 14.7656C13.0605 14.7656 15.8906 13.5056 15.8906 12.375C15.8906 11.9756 15.5194 11.5453 14.8458 11.1635C14.085 10.7332 13.0127 10.3978 11.7457 10.1946C11.6352 10.1769 11.5363 10.116 11.4707 10.0254C11.4051 9.93471 11.3782 9.8217 11.3959 9.71122C11.4136 9.60073 11.4745 9.5018 11.5652 9.4362C11.6558 9.3706 11.7688 9.34369 11.8793 9.36141C14.8739 9.84375 16.7344 10.9969 16.7344 12.375Z" fill="white" fill-opacity="0.75"/>
</svg>
