<svg width="18" height="18" viewBox="0 0 18 18" fill="none" xmlns="http://www.w3.org/2000/svg">
<path d="M10.2797 3.26602C10.294 3.21245 10.3187 3.16222 10.3524 3.1182C10.3861 3.07418 10.4282 3.03724 10.4762 3.00949C10.5241 2.98173 10.5771 2.96371 10.6321 2.95645C10.6871 2.9492 10.7429 2.95285 10.7965 2.96719C11.8155 3.23299 12.7451 3.76563 13.4898 4.51026C14.2344 5.25488 14.767 6.18456 15.0328 7.20352C15.0472 7.25708 15.0508 7.31293 15.0436 7.3679C15.0363 7.42287 15.0183 7.47586 14.9905 7.52386C14.9628 7.57186 14.9258 7.61391 14.8818 7.64762C14.8378 7.68133 14.7876 7.70604 14.734 7.72032C14.6984 7.72978 14.6618 7.73451 14.625 7.73438C14.5321 7.73444 14.4417 7.70379 14.3679 7.64721C14.2942 7.59063 14.2412 7.51128 14.2172 7.42149C13.989 6.54623 13.5315 5.74766 12.8919 5.10807C12.2524 4.46848 11.4538 4.01101 10.5785 3.78282C10.525 3.76854 10.4747 3.74383 10.4307 3.71012C10.3867 3.67641 10.3497 3.63436 10.322 3.58636C10.2942 3.53836 10.2762 3.48537 10.269 3.4304C10.2617 3.37543 10.2653 3.31958 10.2797 3.26602ZM10.016 6.03282C11.0391 6.30563 11.6944 6.96094 11.9672 7.98399C11.9912 8.07378 12.0442 8.15313 12.1179 8.20971C12.1917 8.26629 12.2821 8.29694 12.375 8.29688C12.4118 8.29701 12.4484 8.29228 12.484 8.28282C12.5376 8.26854 12.5878 8.24383 12.6318 8.21012C12.6758 8.17641 12.7128 8.13436 12.7405 8.08636C12.7683 8.03836 12.7863 7.98537 12.7936 7.9304C12.8008 7.87543 12.7972 7.81958 12.7828 7.76602C12.4313 6.45047 11.5495 5.56876 10.234 5.21719C10.1804 5.20288 10.1246 5.19926 10.0696 5.20653C10.0147 5.2138 9.96169 5.23183 9.9137 5.25957C9.86572 5.28732 9.82366 5.32425 9.78994 5.36825C9.75623 5.41225 9.73151 5.46247 9.71719 5.51602C9.70288 5.56958 9.69926 5.62543 9.70653 5.68038C9.7138 5.73534 9.73183 5.78832 9.75958 5.83631C9.78732 5.8843 9.82425 5.92635 9.86826 5.96007C9.91226 5.99379 9.96247 6.01851 10.016 6.03282ZM15.6016 12.8531C15.4812 13.7723 15.0301 14.6161 14.3328 15.2269C13.6354 15.8377 12.7395 16.1736 11.8125 16.1719C6.30704 16.1719 1.82813 11.693 1.82813 6.18751C1.82636 5.26082 2.16199 4.36517 2.77234 3.66787C3.38269 2.97057 4.22601 2.5193 5.14477 2.39836C5.35627 2.37266 5.5704 2.41627 5.755 2.52265C5.9396 2.62902 6.0847 2.79241 6.16852 2.98829L7.65212 6.30001C7.71762 6.44993 7.74473 6.61382 7.73098 6.77685C7.71723 6.93988 7.66306 7.09692 7.57337 7.23376C7.56432 7.24768 7.55446 7.26107 7.54384 7.27383L6.06235 9.03586C6.05336 9.05413 6.04868 9.07422 6.04868 9.09458C6.04868 9.11493 6.05336 9.13502 6.06235 9.15329C6.60094 10.2558 7.75688 11.4033 8.87485 11.9412C8.89352 11.9497 8.91391 11.9537 8.93441 11.953C8.95491 11.9523 8.97496 11.9468 8.99298 11.937L10.729 10.4604C10.7414 10.4496 10.7545 10.4397 10.7684 10.4309C10.9046 10.34 11.0613 10.2846 11.2244 10.2697C11.3874 10.2547 11.5516 10.2806 11.7021 10.3451L15.0237 11.8336C15.2169 11.9193 15.3775 12.0649 15.4816 12.2488C15.5857 12.4328 15.6278 12.6455 15.6016 12.8552V12.8531ZM14.7656 12.7491C14.768 12.7197 14.761 12.6903 14.7458 12.665C14.7305 12.6398 14.7077 12.62 14.6806 12.6084L11.3583 11.1199C11.3401 11.1129 11.3207 11.1099 11.3013 11.1111C11.2819 11.1124 11.2629 11.1177 11.2458 11.127L9.51048 12.6035C9.49782 12.6141 9.48446 12.6239 9.4711 12.6331C9.32955 12.7274 9.16596 12.7835 8.99627 12.7959C8.82658 12.8082 8.6566 12.7763 8.5029 12.7034C7.21196 12.0797 5.92524 10.8049 5.30157 9.52594C5.22822 9.37314 5.19556 9.20398 5.20677 9.03484C5.21798 8.86571 5.27267 8.70234 5.36555 8.56055C5.37461 8.54645 5.38471 8.53305 5.39579 8.52047L6.87587 6.75633C6.88433 6.73792 6.88871 6.71789 6.88871 6.69762C6.88871 6.67736 6.88433 6.65733 6.87587 6.63891L5.39579 3.32649C5.38602 3.29989 5.36843 3.27686 5.34535 3.26042C5.32226 3.24399 5.29475 3.23491 5.26641 3.23438H5.25024C4.53512 3.32951 3.87908 3.68167 3.4046 4.2251C2.93013 4.76854 2.66968 5.46609 2.67188 6.18751C2.67188 11.2275 6.77251 15.3281 11.8125 15.3281C12.534 15.3303 13.2317 15.0698 13.7751 14.5951C14.3186 14.1205 14.6707 13.4643 14.7656 12.7491Z" fill="white" fill-opacity="0.75"/>
</svg>
